<svg height="512" viewBox="0 0 512 512" width="512" xmlns="http://www.w3.org/2000/svg"><g id="filled_outline" data-name="filled outline"><path d="m88 224h336v264h-336z" fill="#009cf7"/><path d="m88 256h144v232h-144z" fill="#eaeae8"/><path d="m126 176h260a22 22 0 0 1 22 22v26a0 0 0 0 1 0 0h-304a0 0 0 0 1 0 0v-26a22 22 0 0 1 22-22z" fill="#eaeae8"/><path d="m88 224h336v32h-336z" fill="#e82f3e"/><path d="m232 256h48a0 0 0 0 1 0 0v24a24 24 0 0 1 -24 24 24 24 0 0 1 -24-24v-24a0 0 0 0 1 0 0z" fill="#fbb540"/><path d="m184 256h48a0 0 0 0 1 0 0v24a24 24 0 0 1 -24 24 24 24 0 0 1 -24-24v-24a0 0 0 0 1 0 0z" fill="#ff3444"/><path d="m136 256h48a0 0 0 0 1 0 0v24a24 24 0 0 1 -24 24 24 24 0 0 1 -24-24v-24a0 0 0 0 1 0 0z" fill="#fbb540"/><path d="m88 256h48a0 0 0 0 1 0 0v24a24 24 0 0 1 -24 24 24 24 0 0 1 -24-24v-24a0 0 0 0 1 0 0z" fill="#ff3444"/><path d="m376 256h48a0 0 0 0 1 0 0v24a24 24 0 0 1 -24 24 24 24 0 0 1 -24-24v-24a0 0 0 0 1 0 0z" fill="#ff3444"/><path d="m328 256h48a0 0 0 0 1 0 0v24a24 24 0 0 1 -24 24 24 24 0 0 1 -24-24v-24a0 0 0 0 1 0 0z" fill="#fbb540"/><path d="m280 256h48a0 0 0 0 1 0 0v24a24 24 0 0 1 -24 24 24 24 0 0 1 -24-24v-24a0 0 0 0 1 0 0z" fill="#ff3444"/><path d="m160 336a40 40 0 0 1 40 40v80a0 0 0 0 1 0 0h-80a0 0 0 0 1 0 0v-80a40 40 0 0 1 40-40z" fill="#e82f3e"/><path d="m232 440h192v48h-192z" fill="#0a71cd"/><path d="m344 376a8 8 0 0 1 -8-8v-16a8 8 0 0 0 -16 0v16a8 8 0 0 1 -16 0v-16a24 24 0 0 1 48 0v16a8 8 0 0 1 -8 8z" fill="#ea9d2d"/><path d="m120 456h80v32h-80z" fill="#961b20"/><path d="m360 408h-64l-8-40h80z" fill="#fbb540"/><path d="m104 204.344h304v19.656h-304z" fill="#cbcbcb"/><path d="m256 24 32.138 65.118 71.862 10.442-52 50.688 12.276 71.572-64.276-33.792-64.276 33.792 12.276-71.572-52-50.688 71.862-10.442z" fill="#fbb540"/><g fill="#ea9d2d"><path d="m136 224h48v32h-48z"/><path d="m232 224h48v32h-48z"/><path d="m328 224h48v32h-48z"/></g><path d="m424 216h-8v-18a30.034 30.034 0 0 0 -30-30h-66.839l-2.561-14.959 48.988-47.752a8 8 0 0 0 -4.434-13.645l-67.7-9.838-30.28-61.346a8 8 0 0 0 -14.348 0l-30.276 61.346-67.7 9.838a8 8 0 0 0 -4.434 13.645l48.984 47.752-2.561 14.959h-66.839a30.034 30.034 0 0 0 -30 30v18h-8a8 8 0 0 0 -8 8v264a8 8 0 0 0 8 8h336a8 8 0 0 0 8-8v-264a8 8 0 0 0 -8-8zm-38-32a14.015 14.015 0 0 1 14 14v18h-72.606l-5.488-32zm-50 64v-16h32v16zm32 16v16a16 16 0 0 1 -32 0v-16zm-48-32v16h-32v-16zm0 32v16a16 16 0 0 1 -32 0v-16zm-150.808-158.854 55.821-8.111a8 8 0 0 0 6.023-4.376l24.964-50.583 24.964 50.583a8 8 0 0 0 6.023 4.376l55.821 8.111-40.392 39.374a8 8 0 0 0 -2.3 7.081l9.534 55.599-49.927-26.248a8 8 0 0 0 -7.446 0l-49.927 26.248 9.535-55.594a8 8 0 0 0 -2.3-7.081zm-57.192 92.854a14.015 14.015 0 0 1 14-14h64.094l-5.488 32h-72.606zm32 50v-16h32v16zm32 16v16a16 16 0 0 1 -32 0v-16zm-80-32h32v16h-32zm0 32h32v16a16 16 0 0 1 -32 0zm96 216h-64v-16h64zm0-32h-64v-72a32 32 0 0 1 64 0zm32 32h-16v-104a48 48 0 0 0 -96 0v104h-16v-172.3a31.916 31.916 0 0 0 40-6.563 31.934 31.934 0 0 0 48 0 31.916 31.916 0 0 0 40 6.563zm0-200a16 16 0 0 1 -32 0v-16h32zm0-32h-32v-16h32zm-4.014-32 36.014-18.934 36.014 18.934zm20.014 32v-16h32v16zm32 16v16a16 16 0 0 1 -32 0v-16zm144 216h-176v-32h176zm0-48h-176v-124.3a31.916 31.916 0 0 0 40-6.563 31.934 31.934 0 0 0 48 0 31.934 31.934 0 0 0 48 0 31.916 31.916 0 0 0 40 6.563zm0-152a16 16 0 0 1 -32 0v-16h32zm0-32h-32v-16h32z"/><path d="m368 360h-16v-8a24 24 0 0 0 -48 0v8h-16a8 8 0 0 0 -7.845 9.569l8 40a8 8 0 0 0 7.845 6.431h64a8 8 0 0 0 7.845-6.431l8-40a8 8 0 0 0 -7.845-9.569zm-48-8a8 8 0 0 1 16 0v8h-16zm33.441 48h-50.882l-4.8-24h60.484z"/></g></svg>